<svg xmlns="http://www.w3.org/2000/svg" xmlns:xlink="http://www.w3.org/1999/xlink" viewBox="0 0 62 20"><defs><path id="a" d="M.348.76h7.183v7.23H.348z"/><path id="c" d="M0 17.31h61.001V.76H0z"/></defs><g fill="none" fill-rule="evenodd"><path fill="#FFF" d="M3.34 1.122L.08 8.352h2.174l.59-1.489h3.403l.614 1.489h2.15l-3.166-7.23H3.34zm1.206 1.747l1.016 2.364H3.577l.97-2.364zM46.65 1.122l-3.26 7.23h2.173l.591-1.489h3.402l.615 1.489h2.15l-3.166-7.23h-2.506zm1.205 1.747l1.016 2.364h-1.984l.968-2.364zM15.745 1.122l-1.654 4.513-1.677-4.513H9.413v7.23h1.891V3.178l1.913 5.174h1.702l1.938-5.245v5.245h1.866v-7.23zM20.259 1.122v7.23h6.072V6.745h-4.228V5.54h4.228V3.886H22.15V2.705h4.182V1.122zM9.413 10.443v7.23h6.073v-1.607h-4.23v-1.205h4.23v-1.654h-4.182v-1.18h4.182v-1.584zM40.353 10.443v7.23h6.072v-1.607h-4.23v-1.205h4.23v-1.654h-4.182v-1.18h4.182v-1.584z"/><g transform="translate(.08 .363)"><g transform="translate(27.203)"><mask id="b" fill="#fff"><use xlink:href="#a"/></mask><path fill="#FFF" d="M4.436 3.878H2.24V2.366h2.197a.755.755 0 110 1.512zm.71 1.488c1.108 0 2.007-.899 2.007-2.008v-.59c0-1.11-.9-2.01-2.008-2.01H.348V7.99h1.867v-2.6h.78l2.197 2.6h2.34L5.144 5.366z" mask="url(#b)"/></g><path fill="#FFF" d="M36.678 13.2H34.48v-1.513h2.198a.756.756 0 110 1.513zm.709 1.488c1.11 0 2.009-.899 2.009-2.008v-.592c0-1.108-.9-2.008-2.009-2.008H32.59v7.23h1.867v-2.599h.78l2.197 2.6h2.34l-2.387-2.623z"/><mask id="d" fill="#fff"><use xlink:href="#c"/></mask><path fill="#FFF" d="M35.302 7.99h1.96V.76h-1.96zM44.185 2.366V.759h-2.534a3.325 3.325 0 00-3.325 3.325v.58a3.325 3.325 0 003.325 3.325h.81l.732-1.653h-1.376c-.936 0-1.696-.76-1.696-1.697v-.577c0-.937.76-1.696 1.696-1.696h2.368zM52.621 7.99V.76h2.481l2.883 4.347V.759h1.937v7.23h-2.315l-3.048-4.608V7.99zM15.808 10.08l3.197 3.532-3.277 3.698h2.473l1.978-2.358 1.945 2.358h2.552l-3.308-3.729 3.15-3.5-2.425-.028-1.891 2.142-1.921-2.142zM29.82 12.49c0 .444-.36.804-.804.804h-2.21v-1.607h2.21c.443 0 .803.36.803.804m-.552-2.41h-4.37v7.23h1.906v-2.375h2.464a2.42 2.42 0 002.42-2.42V12.5a2.42 2.42 0 00-2.42-2.42M53.833 10.08H49.4a2.087 2.087 0 00-2.087 2.087v.258c0 1.151.935 2.086 2.087 2.086h2.119a.55.55 0 110 1.102H47.5v1.697h4.311a2.1 2.1 0 002.1-2.1v-.27a2.1 2.1 0 00-2.1-2.1h-2.027a.583.583 0 010-1.165h3.261l.787-1.595zM60.922 10.08h-4.435a2.087 2.087 0 00-2.086 2.087v.258c0 1.151.934 2.086 2.086 2.086h2.12a.55.55 0 110 1.102H54.59v1.697H58.9a2.1 2.1 0 002.1-2.1v-.27a2.1 2.1 0 00-2.1-2.1h-2.027a.583.583 0 110-1.165h3.261l.787-1.595z" mask="url(#d)"/></g></g></svg>