<svg xmlns="http://www.w3.org/2000/svg" xmlns:xlink="http://www.w3.org/1999/xlink" viewBox="0 0 26 24"><defs><path id="a" d="M0 .57h25.105v21.687H0z"/><path id="c" d="M0 22.511h25.105V.824H0z"/></defs><g fill="none" fill-rule="evenodd"><g transform="translate(0 .255)"><mask id="b" fill="#fff"><use xlink:href="#a"/></mask><path fill="#F5F4F6" d="M12.956.57c10.57 0 12.15 6.78 12.15 10.817 0 7.01-4.317 10.87-12.15 10.87H0V.57h12.956zM1.02 1.588v19.648h11.937c7.209 0 11.13-3.357 11.13-9.85 0-6.671-4.25-9.798-11.13-9.798H1.02z" mask="url(#b)"/></g><mask id="d" fill="#fff"><use xlink:href="#c"/></mask><path fill="#F5F4F6" d="M2.663 19.93h3.821V13.13h-3.82zM6.945 9.703a2.378 2.378 0 01-4.755 0 2.377 2.377 0 014.755 0" mask="url(#d)"/><path fill="#FFF" d="M14.422 10.813v1.102h-2.724v-4.42h2.638v1.102H12.8v.512h1.453v1.102H12.8v.607c.616-.005 1.622-.005 1.622-.005zm.53 1.102l1.33-4.42h1.566l1.331 4.42h-1.144l-.252-.854h-1.44l-.252.854h-1.14zm1.717-1.951h.797l-.363-1.25h-.065l-.369 1.25zm3.066-2.468h1.102v3.317h1.631c-.446-6.025-5.188-7.325-9.49-7.325H8.383v4.008h.68c1.241 0 2.01.841 2.01 2.19 0 1.392-.751 2.225-2.01 2.225h-.68v8.02h4.589c7 0 9.438-3.253 9.52-8.02h-2.758V7.496zm-11.351 1.1v2.217h.68c.474 0 .908-.134.908-1.127 0-.968-.486-1.093-.907-1.093 0 .004-.342.004-.681.004z" mask="url(#d)"/></g></svg>