<svg xmlns="http://www.w3.org/2000/svg" xmlns:xlink="http://www.w3.org/1999/xlink" viewBox="0 0 154 32"><defs><path id="a" d="M.018.165H1.55v30.482H.018z"/><path id="c" d="M.504.165h28.189V30.61H.503z"/></defs><g fill="none" fill-rule="evenodd"><path fill="#020203" d="M16.529 31.21l-.43-.002a.766.766 0 01-.672-.407L1.532 4.607v25.84a.766.766 0 11-1.532 0V2.1a.899.899 0 011.693-.421l14.63 27.562L31.31 1.667a.898.898 0 01.789-.468h.004c.496 0 .898.402.898.898v28.35a.765.765 0 11-1.532 0V4.544L17.206 30.81a.767.767 0 01-.677.4M136.972 31.21l-.422-.002a.765.765 0 01-.674-.408L121.795 4.175v26.271a.766.766 0 11-1.533 0V1.667c0-.497.405-.9.901-.897h.003a.897.897 0 01.788.478l14.819 27.994 14.802-27.998a.895.895 0 011.69.42v28.782a.766.766 0 11-1.533 0V4.113l-14.078 26.689a.769.769 0 01-.682.408"/><g transform="translate(75.85 .602)"><mask id="b" fill="#fff"><use xlink:href="#a"/></mask><path fill="#020203" d="M.784 30.647a.766.766 0 01-.766-.766V.93a.766.766 0 011.532 0v28.95a.765.765 0 01-.766.766" mask="url(#b)"/></g><path fill="#020203" d="M39.497 29.68H68.86L54.462 3.15 39.497 29.68zm30.65 1.532H38.186a.766.766 0 01-.667-1.142l16.29-28.878c.137-.243.432-.385.674-.39a.765.765 0 01.666.401l15.673 28.878a.768.768 0 01-.673 1.131z"/><g transform="translate(84.279 .602)"><mask id="d" fill="#fff"><use xlink:href="#c"/></mask><path fill="#020203" d="M14.081 30.602C6.438 30.327.504 23.79.504 16.143V.93a.766.766 0 011.532 0v15.202c0 7.47 6.12 13.498 13.566 12.907 6.46-.514 11.558-5.934 11.558-12.522V.93a.766.766 0 011.533 0v15.587c0 7.942-6.606 14.372-14.612 14.085" mask="url(#d)"/></g></g></svg>