<svg xmlns="http://www.w3.org/2000/svg" viewBox="0 0 35 23"><g fill="none" fill-rule="evenodd"><path fill="#FFF" d="M12.573 20.271h10.19V3.627h-10.19z"/><path fill="#CCC" d="M13.623 11.95a10.567 10.567 0 014.042-8.32C13.07.018 6.415.816 2.803 5.412-.81 10.008-.012 16.662 4.585 20.274a10.585 10.585 0 0013.08 0 10.567 10.567 0 01-4.042-8.324"/><path fill="#E5E5E5" d="M34.46 18.51V18.1h-.106l-.123.293-.124-.293H34v.411h.076V18.2l.115.267h.079l.115-.267v.311h.074zm-.68 0v-.341h.147v-.07h-.35v.07h.14v.341h.063zM34.792 11.95c0 5.846-4.74 10.585-10.585 10.585-2.373 0-4.677-.797-6.541-2.264 4.595-3.612 5.393-10.266 1.781-14.862a10.588 10.588 0 00-1.781-1.782C22.26.014 28.916.811 32.528 5.407a10.584 10.584 0 012.264 6.541v.002z"/></g></svg>