<svg xmlns="http://www.w3.org/2000/svg" xmlns:xlink="http://www.w3.org/1999/xlink" viewBox="0 0 62 19"><defs><path id="a" d="M0 .427h33.566v16.06H0z"/><path id="c" d="M.54.425h26.757v13.282H.541z"/></defs><g fill="none" fill-rule="evenodd"><g transform="translate(.674 .697)"><mask id="b" fill="#fff"><use xlink:href="#a"/></mask><path fill="#E5E5E5" d="M25.236 4.772h-1.957c-.403 0-.567.301-.44.671l2.43 7.114-2.384 3.384c-.2.284-.044.54.238.54h2.198a.673.673 0 00.653-.32l7.472-10.716c.23-.33.122-.676-.257-.676h-2.081c-.357 0-.5.142-.704.439l-3.116 4.515-1.392-4.526c-.08-.274-.285-.425-.66-.425zm-9.708 6.623c-1.281 0-2.174-1.023-1.989-2.274.186-1.252 1.384-2.275 2.664-2.275 1.281 0 2.173 1.023 1.989 2.275-.186 1.251-1.382 2.274-2.664 2.274zm1.616 1.148c.199-.18.4-.274.372-.05l-.071.532c-.036.278.074.426.333.426h1.929c.325 0 .483-.131.564-.634l1.188-7.462c.06-.375-.032-.559-.316-.559H19.02c-.191 0-.284.108-.334.4l-.079.459c-.04.239-.15.28-.252.04-.36-.852-1.278-1.234-2.559-1.204-2.976.061-4.982 2.32-5.197 5.217-.166 2.24 1.439 3.998 3.555 3.998 1.535 0 2.222-.45 2.995-1.159l-.006-.004zM4.168 6.586h1.77c1.106-.042 1.84-.808 1.913-2.19.046-.853-.53-1.464-1.447-1.46l-1.665.008-.57 3.642zM7.706.427c1.967 0 3.782 1.067 3.533 3.727-.3 3.16-1.994 4.91-4.665 4.916H4.239c-.335 0-.498.274-.585.836l-.452 2.87c-.067.434-.29.648-.618.648H.412c-.346 0-.467-.222-.39-.717L1.815 1.204c.088-.566.3-.777.687-.777h5.204z" mask="url(#b)"/></g><g transform="translate(33.647 .697)"><mask id="d" fill="#fff"><use xlink:href="#c"/></mask><path fill="#FFF" d="M24.968 13.463H22.74a.264.264 0 01-.273-.301L24.425.766a.384.384 0 01.37-.301h2.228a.263.263 0 01.272.3l-1.957 12.397a.383.383 0 01-.37.304v-.003zm-8.9-2.068c-1.28 0-2.173-1.023-1.988-2.275.186-1.252 1.384-2.273 2.664-2.273 1.281 0 2.173 1.021 1.989 2.273-.186 1.252-1.383 2.275-2.664 2.275zm1.615 1.149c.2-.182.401-.275.372-.052l-.07.533c-.037.279.073.425.332.425h1.93c.325 0 .482-.13.563-.633l1.189-7.462c.06-.375-.032-.558-.317-.558h-2.12c-.19 0-.283.106-.333.399l-.078.458c-.04.24-.15.282-.253.041-.36-.852-1.278-1.234-2.558-1.204-2.976.062-4.982 2.321-5.198 5.216-.165 2.24 1.44 4 3.556 4 1.535 0 2.22-.452 2.994-1.16l-.009-.003zM4.708 6.586h1.769c1.106-.043 1.84-.808 1.914-2.19.045-.853-.531-1.464-1.448-1.46l-1.665.008-.57 3.642zM8.245.427c1.968 0 3.783 1.067 3.534 3.727-.301 3.161-1.994 4.91-4.666 4.917H4.78c-.335 0-.498.273-.585.836l-.452 2.87c-.067.433-.29.646-.619.646H.953c-.346 0-.467-.22-.39-.716L2.358 1.2c.09-.566.302-.776.689-.776h5.198v.002z" mask="url(#d)"/></g></g></svg>