<svg xmlns="http://www.w3.org/2000/svg" xmlns:xlink="http://www.w3.org/1999/xlink" viewBox="0 0 42 15"><defs><linearGradient id="b" x1="0%" x2="100.001%" y1="50%" y2="50%"><stop offset="0%" stop-color="#E4E4E4"/><stop offset="100%" stop-color="#FFF"/></linearGradient><path id="a" d="M26.442 0c-3.184.041-5.414 1.755-5.432 4.195-.021 1.827 1.63 2.845 2.875 3.454 1.277.621 1.707 1.02 1.702 1.576-.01.852-1.02 1.228-1.965 1.243-1.65.025-2.608-.447-3.372-.802l-.593 2.781c.766.351 2.18.658 3.65.674 3.449 0 5.704-1.703 5.715-4.343.015-3.348-4.631-3.533-4.6-5.03.012-.454.444-.938 1.393-1.062.47-.061 1.767-.11 3.237.568l.577-2.691A8.835 8.835 0 0026.669 0h-.227zm8.733.232c-.63 0-1.163.366-1.398.931l-4.926 11.759h3.447l.685-1.896h4.211l.397 1.896h3.036L37.977.232h-2.802zm.481 3.429l.995 4.765h-2.724l1.729-4.765zM16.833.23l-2.715 12.691h3.283L20.116.232h-3.283zm-4.856 0L8.56 8.87 7.178 1.526C7.015.706 6.375.232 5.664.232H.077L0 .6c1.147.25 2.45.651 3.238 1.08.483.263.621.491.78 1.114l2.619 10.128h3.47L15.424.232h-3.448z"/></defs><g fill="none" fill-rule="evenodd" transform="translate(.918 .77)"><mask id="c" fill="#fff"><use xlink:href="#a"/></mask><path fill="url(#b)" d="M26.442 0c-3.184.041-5.414 1.755-5.432 4.195-.021 1.827 1.63 2.845 2.875 3.454 1.277.621 1.707 1.02 1.702 1.576-.01.852-1.02 1.228-1.965 1.243-1.65.025-2.608-.447-3.372-.802l-.593 2.781c.766.351 2.18.658 3.65.674 3.449 0 5.704-1.703 5.715-4.343.015-3.348-4.631-3.533-4.6-5.03.012-.454.444-.938 1.393-1.062.47-.061 1.767-.11 3.237.568l.577-2.691A8.835 8.835 0 0026.669 0h-.227zm8.733.232c-.63 0-1.163.366-1.398.931l-4.926 11.759h3.447l.685-1.896h4.211l.397 1.896h3.036L37.977.232h-2.802zm.481 3.429l.995 4.765h-2.724l1.729-4.765zM16.833.23l-2.715 12.691h3.283L20.116.232h-3.283zm-4.856 0L8.56 8.87 7.178 1.526C7.015.706 6.375.232 5.664.232H.077L0 .6c1.147.25 2.45.651 3.238 1.08.483.263.621.491.78 1.114l2.619 10.128h3.47L15.424.232h-3.448z" mask="url(#c)"/></g></svg>